<svg width="88" height="26" viewBox="0 0 88 26" fill="none" xmlns="http://www.w3.org/2000/svg">
<path d="M25 4.72078H28.8961V8.61688H25V4.72078Z" fill="white"/>
<path d="M29.2208 4.72078H33.1169V8.61688H29.2208V4.72078Z" fill="white"/>
<path d="M33.4416 0.5H37.3377V4.3961H33.4416V0.5Z" fill="#DD4B4B"/>
<path d="M29.2208 8.94156H33.1169V12.8377H29.2208V8.94156Z" fill="white"/>
<path d="M29.2208 13.1623H33.1169V17.0584H29.2208V13.1623Z" fill="white"/>
<path d="M29.2208 17.3831H33.1169V21.2792H29.2208V17.3831Z" fill="white"/>
<path d="M29.2208 21.6039H33.1169V25.5H29.2208V21.6039Z" fill="white"/>
<path d="M16.8831 8.94156H20.7792V12.8377H16.8831V8.94156Z" fill="white"/>
<path d="M12.6623 4.72078H16.5584V8.61688H12.6623V4.72078Z" fill="white"/>
<path d="M8.44156 4.72078H12.3377V8.61688H8.44156V4.72078Z" fill="white"/>
<path d="M4.22078 4.72078H8.11688V8.61688H4.22078V4.72078Z" fill="white"/>
<path d="M0 8.94156H3.8961V12.8377H0V8.94156Z" fill="white"/>
<path d="M0 13.1623H3.8961V17.0584H0V13.1623Z" fill="white"/>
<path d="M0 17.3831H3.8961V21.2792H0V17.3831Z" fill="white"/>
<path d="M4.22078 21.6039H8.11688V25.5H4.22078V21.6039Z" fill="white"/>
<path d="M8.44156 21.6039H12.3377V25.5H8.44156V21.6039Z" fill="white"/>
<path d="M12.6623 21.6039H16.5584V25.5H12.6623V21.6039Z" fill="white"/>
<path d="M16.8831 17.3831H20.7792V21.2792H16.8831V17.3831Z" fill="white"/>
<path d="M41.5584 8.94156H45.4545V12.8377H41.5584V8.94156Z" fill="white"/>
<path d="M45.7792 4.72078H49.6753V8.61688H45.7792V4.72078Z" fill="white"/>
<path d="M41.5584 13.1623H45.4545V17.0584H41.5584V13.1623Z" fill="white"/>
<path d="M41.5584 17.3831H45.4545V21.2792H41.5584V17.3831Z" fill="white"/>
<path d="M41.5584 21.6039H45.4545V25.5H41.5584V21.6039Z" fill="white"/>
<path d="M45.7792 13.1623H49.6753V17.0584H45.7792V13.1623Z" fill="white"/>
<path d="M58.1169 8.94156H62.013V12.8377H58.1169V8.94156Z" fill="white"/>
<path d="M58.1169 13.1623H62.013V17.0584H58.1169V13.1623Z" fill="white"/>
<path d="M58.1169 17.3831H62.013V21.2792H58.1169V17.3831Z" fill="white"/>
<path d="M58.1169 21.6039H62.013V25.5H58.1169V21.6039Z" fill="white"/>
<path d="M62.3377 4.72078H66.2338V8.61688H62.3377V4.72078Z" fill="white"/>
<path d="M62.3377 4.72078H66.2338V8.61688H62.3377V4.72078Z" fill="white"/>
<path d="M74.6753 13.1623H78.5714V17.0584H74.6753V13.1623Z" fill="white"/>
<path d="M74.6753 13.1623H78.5714V17.0584H74.6753V13.1623Z" fill="white"/>
<path d="M74.6753 8.94156H78.5714V12.8377H74.6753V8.94156Z" fill="white"/>
<path d="M74.6753 8.94156H78.5714V12.8377H74.6753V8.94156Z" fill="white"/>
<path d="M78.8961 4.72078H82.7922V8.61688H78.8961V4.72078Z" fill="white"/>
<path d="M78.8961 4.72078H82.7922V8.61688H78.8961V4.72078Z" fill="white"/>
<path d="M83.1169 8.94156H87.013V12.8377H83.1169V8.94156Z" fill="white"/>
<path d="M83.1169 8.94156H87.013V12.8377H83.1169V8.94156Z" fill="white"/>
<path d="M83.1169 13.1623H87.013V17.0584H83.1169V13.1623Z" fill="white"/>
<path d="M83.1169 13.1623H87.013V17.0584H83.1169V13.1623Z" fill="white"/>
<path d="M83.1169 17.3831H87.013V21.2792H83.1169V17.3831Z" fill="white"/>
<path d="M83.1169 17.3831H87.013V21.2792H83.1169V17.3831Z" fill="white"/>
<path d="M83.1169 21.6039H87.013V25.5H83.1169V21.6039Z" fill="white"/>
<path d="M83.1169 21.6039H87.013V25.5H83.1169V21.6039Z" fill="white"/>
<path d="M74.6753 17.3831H78.5714V21.2792H74.6753V17.3831Z" fill="white"/>
<path d="M74.6753 17.3831H78.5714V21.2792H74.6753V17.3831Z" fill="white"/>
<path d="M74.6753 21.6039H78.5714V25.5H74.6753V21.6039Z" fill="white"/>
<path d="M74.6753 21.6039H78.5714V25.5H74.6753V21.6039Z" fill="white"/>
<path d="M78.8961 13.1623H82.7922V17.0584H78.8961V13.1623Z" fill="white"/>
<path d="M78.8961 13.1623H82.7922V17.0584H78.8961V13.1623Z" fill="white"/>
<path d="M50 4.72078H53.8961V8.61688H50V4.72078Z" fill="white"/>
<path d="M66.5584 4.72078H70.4545V8.61688H66.5584V4.72078Z" fill="white"/>
<path d="M66.5584 4.72078H70.4545V8.61688H66.5584V4.72078Z" fill="white"/>
<path d="M83.1169 4.72078H87.013V8.61688H83.1169V4.72078Z" fill="white"/>
<path d="M83.1169 4.72078H87.013V8.61688H83.1169V4.72078Z" fill="white"/>
</svg>
