<svg width="140" height="64" viewBox="0 0 140 64" fill="none" xmlns="http://www.w3.org/2000/svg">
<path d="M0 0H12V12H0V0Z" fill="white"/>
<path d="M0 13H12V25H0V13Z" fill="white"/>
<path d="M0 26H12V38H0V26Z" fill="white"/>
<path d="M0 39H12V51H0V39Z" fill="white"/>
<path d="M0 52H12V64H0V52Z" fill="white"/>
<path d="M13 52H25V64H13V52Z" fill="white"/>
<path d="M26 39H38V51H26V39Z" fill="white"/>
<path d="M26 26H38V38H26V26Z" fill="white"/>
<path d="M26 13H38V25H26V13Z" fill="white"/>
<path d="M13 0H25V12H13V0Z" fill="white"/>
<path d="M51 26H63V38H51V26Z" fill="white"/>
<path d="M51 26H63V38H51V26Z" fill="white"/>
<path d="M51 13H63V25H51V13Z" fill="white"/>
<path d="M51 13H63V25H51V13Z" fill="white"/>
<path d="M64 0H76V12H64V0Z" fill="white"/>
<path d="M64 0H76V12H64V0Z" fill="white"/>
<path d="M77 13H89V25H77V13Z" fill="white"/>
<path d="M77 13H89V25H77V13Z" fill="white"/>
<path d="M77 26H89V38H77V26Z" fill="white"/>
<path d="M77 26H89V38H77V26Z" fill="white"/>
<path d="M77 39H89V51H77V39Z" fill="white"/>
<path d="M77 39H89V51H77V39Z" fill="white"/>
<path d="M77 52H89V64H77V52Z" fill="white"/>
<path d="M77 52H89V64H77V52Z" fill="white"/>
<path d="M51 39H63V51H51V39Z" fill="white"/>
<path d="M51 39H63V51H51V39Z" fill="white"/>
<path d="M51 52H63V64H51V52Z" fill="white"/>
<path d="M51 52H63V64H51V52Z" fill="white"/>
<path d="M64 26H76V38H64V26Z" fill="white"/>
<path d="M64 26H76V38H64V26Z" fill="white"/>
<path d="M77 0H89V12H77V0Z" fill="white"/>
<path d="M77 0H89V12H77V0Z" fill="white"/>
<path d="M51 26H63V38H51V26Z" fill="white"/>
<path d="M51 26H63V38H51V26Z" fill="white"/>
<path d="M51 13H63V25H51V13Z" fill="white"/>
<path d="M51 13H63V25H51V13Z" fill="white"/>
<path d="M64 0H76V12H64V0Z" fill="white"/>
<path d="M64 0H76V12H64V0Z" fill="white"/>
<path d="M77 13H89V25H77V13Z" fill="white"/>
<path d="M77 13H89V25H77V13Z" fill="white"/>
<path d="M77 26H89V38H77V26Z" fill="white"/>
<path d="M77 26H89V38H77V26Z" fill="white"/>
<path d="M77 39H89V51H77V39Z" fill="white"/>
<path d="M77 39H89V51H77V39Z" fill="white"/>
<path d="M77 52H89V64H77V52Z" fill="white"/>
<path d="M77 52H89V64H77V52Z" fill="white"/>
<path d="M51 39H63V51H51V39Z" fill="white"/>
<path d="M51 39H63V51H51V39Z" fill="white"/>
<path d="M51 52H63V64H51V52Z" fill="white"/>
<path d="M51 52H63V64H51V52Z" fill="white"/>
<path d="M64 26H76V38H64V26Z" fill="white"/>
<path d="M64 26H76V38H64V26Z" fill="white"/>
<path d="M77 0H89V12H77V0Z" fill="white"/>
<path d="M77 0H89V12H77V0Z" fill="white"/>
<path d="M102 13H114V25H102V13Z" fill="white"/>
<path d="M102 0H114V12H102V0Z" fill="white"/>
<path d="M115 52H127V64H115V52Z" fill="white"/>
<path d="M115 39H127V51H115V39Z" fill="white"/>
<path d="M115 26H127V38H115V26Z" fill="white"/>
<path d="M128 13H140V25H128V13Z" fill="white"/>
<path d="M128 0H140V12H128V0Z" fill="white"/>
</svg>
