<svg width="66" height="30" viewBox="0 0 66 30" fill="none" xmlns="http://www.w3.org/2000/svg">
<path d="M0 0H5.625V5.625H0V0Z" fill="white"/>
<path d="M0 6.09375H5.625V11.7188H0V6.09375Z" fill="white"/>
<path d="M0 12.1875H5.625V17.8125H0V12.1875Z" fill="white"/>
<path d="M0 18.2812H5.625V23.9062H0V18.2812Z" fill="white"/>
<path d="M0 24.375H5.625V30H0V24.375Z" fill="white"/>
<path d="M6.09375 24.375H11.7188V30H6.09375V24.375Z" fill="white"/>
<path d="M12.1875 18.2812H17.8125V23.9062H12.1875V18.2812Z" fill="white"/>
<path d="M12.1875 12.1875H17.8125V17.8125H12.1875V12.1875Z" fill="white"/>
<path d="M12.1875 6.09375H17.8125V11.7188H12.1875V6.09375Z" fill="white"/>
<path d="M6.09375 0H11.7188V5.625H6.09375V0Z" fill="white"/>
<path d="M23.9062 12.1875H29.5312V17.8125H23.9062V12.1875Z" fill="white"/>
<path d="M23.9062 12.1875H29.5312V17.8125H23.9062V12.1875Z" fill="white"/>
<path d="M23.9062 6.09375H29.5312V11.7188H23.9062V6.09375Z" fill="white"/>
<path d="M23.9062 6.09375H29.5312V11.7188H23.9062V6.09375Z" fill="white"/>
<path d="M30 0H35.625V5.625H30V0Z" fill="white"/>
<path d="M30 0H35.625V5.625H30V0Z" fill="white"/>
<path d="M36.0938 6.09375H41.7188V11.7188H36.0938V6.09375Z" fill="white"/>
<path d="M36.0938 6.09375H41.7188V11.7188H36.0938V6.09375Z" fill="white"/>
<path d="M36.0938 12.1875H41.7188V17.8125H36.0938V12.1875Z" fill="white"/>
<path d="M36.0938 12.1875H41.7188V17.8125H36.0938V12.1875Z" fill="white"/>
<path d="M36.0938 18.2812H41.7188V23.9062H36.0938V18.2812Z" fill="white"/>
<path d="M36.0938 18.2812H41.7188V23.9062H36.0938V18.2812Z" fill="white"/>
<path d="M36.0938 24.375H41.7188V30H36.0938V24.375Z" fill="white"/>
<path d="M36.0938 24.375H41.7188V30H36.0938V24.375Z" fill="white"/>
<path d="M23.9062 18.2812H29.5312V23.9062H23.9062V18.2812Z" fill="white"/>
<path d="M23.9062 18.2812H29.5312V23.9062H23.9062V18.2812Z" fill="white"/>
<path d="M23.9062 24.375H29.5312V30H23.9062V24.375Z" fill="white"/>
<path d="M23.9062 24.375H29.5312V30H23.9062V24.375Z" fill="white"/>
<path d="M30 12.1875H35.625V17.8125H30V12.1875Z" fill="white"/>
<path d="M30 12.1875H35.625V17.8125H30V12.1875Z" fill="white"/>
<path d="M36.0938 0H41.7188V5.625H36.0938V0Z" fill="white"/>
<path d="M36.0938 0H41.7188V5.625H36.0938V0Z" fill="white"/>
<path d="M23.9062 12.1875H29.5312V17.8125H23.9062V12.1875Z" fill="white"/>
<path d="M23.9062 12.1875H29.5312V17.8125H23.9062V12.1875Z" fill="white"/>
<path d="M23.9062 6.09375H29.5312V11.7188H23.9062V6.09375Z" fill="white"/>
<path d="M23.9062 6.09375H29.5312V11.7188H23.9062V6.09375Z" fill="white"/>
<path d="M30 0H35.625V5.625H30V0Z" fill="white"/>
<path d="M30 0H35.625V5.625H30V0Z" fill="white"/>
<path d="M36.0938 6.09375H41.7188V11.7188H36.0938V6.09375Z" fill="white"/>
<path d="M36.0938 6.09375H41.7188V11.7188H36.0938V6.09375Z" fill="white"/>
<path d="M36.0938 12.1875H41.7188V17.8125H36.0938V12.1875Z" fill="white"/>
<path d="M36.0938 12.1875H41.7188V17.8125H36.0938V12.1875Z" fill="white"/>
<path d="M36.0938 18.2812H41.7188V23.9062H36.0938V18.2812Z" fill="white"/>
<path d="M36.0938 18.2812H41.7188V23.9062H36.0938V18.2812Z" fill="white"/>
<path d="M36.0938 24.375H41.7188V30H36.0938V24.375Z" fill="white"/>
<path d="M36.0938 24.375H41.7188V30H36.0938V24.375Z" fill="white"/>
<path d="M23.9062 18.2812H29.5312V23.9062H23.9062V18.2812Z" fill="white"/>
<path d="M23.9062 18.2812H29.5312V23.9062H23.9062V18.2812Z" fill="white"/>
<path d="M23.9062 24.375H29.5312V30H23.9062V24.375Z" fill="white"/>
<path d="M23.9062 24.375H29.5312V30H23.9062V24.375Z" fill="white"/>
<path d="M30 12.1875H35.625V17.8125H30V12.1875Z" fill="white"/>
<path d="M30 12.1875H35.625V17.8125H30V12.1875Z" fill="white"/>
<path d="M36.0938 0H41.7188V5.625H36.0938V0Z" fill="white"/>
<path d="M36.0938 0H41.7188V5.625H36.0938V0Z" fill="white"/>
<path d="M47.8125 6.09375H53.4375V11.7188H47.8125V6.09375Z" fill="white"/>
<path d="M47.8125 0H53.4375V5.625H47.8125V0Z" fill="white"/>
<path d="M53.9062 24.375H59.5312V30H53.9062V24.375Z" fill="white"/>
<path d="M53.9062 18.2812H59.5312V23.9062H53.9062V18.2812Z" fill="white"/>
<path d="M53.9062 12.1875H59.5312V17.8125H53.9062V12.1875Z" fill="white"/>
<path d="M60 6.09375H65.625V11.7188H60V6.09375Z" fill="white"/>
<path d="M60 0H65.625V5.625H60V0Z" fill="white"/>
</svg>
