<svg width="126" height="30" viewBox="0 0 268 64" fill="none" xmlns="http://www.w3.org/2000/svg">
<path d="M0 52H12V64H0V52Z" fill="white"/>
<path d="M0 39H12V51H0V39Z" fill="white"/>
<path d="M0 26H12V38H0V26Z" fill="white"/>
<path d="M0 13H12V25H0V13Z" fill="white"/>
<path d="M0 0H12V12H0V0Z" fill="white"/>
<path d="M13 13H25V25H13V13Z" fill="white"/>
<path d="M26 26H38V38H26V26Z" fill="white"/>
<path d="M39 13H51V25H39V13Z" fill="white"/>
<path d="M52 52H64V64H52V52Z" fill="white"/>
<path d="M52 39H64V51H52V39Z" fill="white"/>
<path d="M52 26H64V38H52V26Z" fill="white"/>
<path d="M52 13H64V25H52V13Z" fill="white"/>
<path d="M52 0H64V12H52V0Z" fill="white"/>
<path d="M77 39H89V51H77V39Z" fill="white"/>
<path d="M77 26H89V38H77V26Z" fill="white"/>
<path d="M77 13H89V25H77V13Z" fill="white"/>
<path d="M90 0H102V12H90V0Z" fill="white"/>
<path d="M103 0H115V12H103V0Z" fill="white"/>
<path d="M103 13H115V25H103V13Z" fill="white"/>
<path d="M103 26H115V38H103V26Z" fill="white"/>
<path d="M103 39H115V51H103V39Z" fill="white"/>
<path d="M90 52H102V64H90V52Z" fill="white"/>
<path d="M77 52H89V64H77V52Z" fill="white"/>
<path d="M128 52H140V64H128V52Z" fill="white"/>
<path d="M128 39H140V51H128V39Z" fill="white"/>
<path d="M128 26H140V38H128V26Z" fill="white"/>
<path d="M128 13H140V25H128V13Z" fill="white"/>
<path d="M128 0H140V12H128V0Z" fill="white"/>
<path d="M141 26H153V38H141V26Z" fill="white"/>
<path d="M154 26H166V38H154V26Z" fill="white"/>
<path d="M154 13H166V25H154V13Z" fill="white"/>
<path d="M154 0H166V12H154V0Z" fill="white"/>
<path d="M154 39H166V51H154V39Z" fill="white"/>
<path d="M154 52H166V64H154V52Z" fill="white"/>
<path d="M141 13H153V25H141V13Z" fill="white"/>
<path d="M179 0H191V12H179V0Z" fill="white"/>
<path d="M179 13H191V25H179V13Z" fill="white"/>
<path d="M179 26H191V38H179V26Z" fill="white"/>
<path d="M179 39H191V51H179V39Z" fill="white"/>
<path d="M192 52H204V64H192V52Z" fill="white"/>
<path d="M205 52H217V64H205V52Z" fill="white"/>
<path d="M192 13H204V25H192V13Z" fill="white"/>
<path d="M230 52H242V64H230V52Z" fill="white"/>
<path d="M230 39H242V51H230V39Z" fill="white"/>
<path d="M230 26H242V38H230V26Z" fill="white"/>
<path d="M230 13H242V25H230V13Z" fill="white"/>
<path d="M230 0H242V12H230V0Z" fill="white"/>
<path d="M243 26H255V38H243V26Z" fill="white"/>
<path d="M256 26H268V38H256V26Z" fill="white"/>
<path d="M256 13H268V25H256V13Z" fill="white"/>
<path d="M256 0H268V12H256V0Z" fill="white"/>
<path d="M256 39H268V51H256V39Z" fill="white"/>
<path d="M256 52H268V64H256V52Z" fill="white"/>
</svg>
