<svg width="102" height="30" viewBox="0 0 217 64" fill="none" xmlns="http://www.w3.org/2000/svg">
<path d="M0 12H12V0H0V12Z" fill="white"/>
<path d="M0 25H12V13H0V25Z" fill="white"/>
<path d="M0 38H12V26H0V38Z" fill="white"/>
<path d="M0 51H12V39H0V51Z" fill="white"/>
<path d="M0 64H12V52H0V64Z" fill="white"/>
<path d="M13 51H25V39H13V51Z" fill="white"/>
<path d="M26 38H38V26H26V38Z" fill="white"/>
<path d="M39 51H51V39H39V51Z" fill="white"/>
<path d="M52 12H64V0H52V12Z" fill="white"/>
<path d="M52 25H64V13H52V25Z" fill="white"/>
<path d="M52 38H64V26H52V38Z" fill="white"/>
<path d="M52 51H64V39H52V51Z" fill="white"/>
<path d="M52 64H64V52H52V64Z" fill="white"/>
<path d="M77 52H89V64H77V52Z" fill="white"/>
<path d="M77 39H89V51H77V39Z" fill="white"/>
<path d="M77 26H89V38H77V26Z" fill="white"/>
<path d="M77 13H89V25H77V13Z" fill="white"/>
<path d="M77 0H89V12H77V0Z" fill="white"/>
<path d="M90 0H102V12H90V0Z" fill="white"/>
<path d="M103 0H115V12H103V0Z" fill="white"/>
<path d="M90 26H102V38H90V26Z" fill="white"/>
<path d="M90 52H102V64H90V52Z" fill="white"/>
<path d="M103 52H115V64H103V52Z" fill="white"/>
<path d="M128 52H140V64H128V52Z" fill="white"/>
<path d="M128 39H140V51H128V39Z" fill="white"/>
<path d="M128 26H140V38H128V26Z" fill="white"/>
<path d="M128 13H140V25H128V13Z" fill="white"/>
<path d="M128 0H140V12H128V0Z" fill="white"/>
<path d="M141 0H153V12H141V0Z" fill="white"/>
<path d="M154 0H166V12H154V0Z" fill="white"/>
<path d="M141 26H153V38H141V26Z" fill="white"/>
<path d="M141 52H153V64H141V52Z" fill="white"/>
<path d="M154 52H166V64H154V52Z" fill="white"/>
<path d="M179 0H191V12H179V0Z" fill="white"/>
<path d="M179 13H191V25H179V13Z" fill="white"/>
<path d="M179 26H191V38H179V26Z" fill="white"/>
<path d="M179 39H191V51H179V39Z" fill="white"/>
<path d="M179 52H191V64H179V52Z" fill="white"/>
<path d="M192 26H204V38H192V26Z" fill="white"/>
<path d="M205 13H217V25H205V13Z" fill="white"/>
<path d="M205 0H217V12H205V0Z" fill="white"/>
<path d="M205 39H217V51H205V39Z" fill="white"/>
<path d="M205 52H217V64H205V52Z" fill="white"/>
</svg>
