<svg width="90" height="30" viewBox="0 0 191 64" fill="none" xmlns="http://www.w3.org/2000/svg">
<path d="M0 13H12V25H0V13Z" fill="white"/>
<path d="M0 0H12V12H0V0Z" fill="white"/>
<path d="M13 52H25V64H13V52Z" fill="white"/>
<path d="M13 39H25V51H13V39Z" fill="white"/>
<path d="M13 26H25V38H13V26Z" fill="white"/>
<path d="M26 13H38V25H26V13Z" fill="white"/>
<path d="M26 0H38V12H26V0Z" fill="white"/>
<path d="M51 52H63V64H51V52Z" fill="white"/>
<path d="M51 39H63V51H51V39Z" fill="white"/>
<path d="M51 26H63V38H51V26Z" fill="white"/>
<path d="M51 13H63V25H51V13Z" fill="white"/>
<path d="M51 0H63V12H51V0Z" fill="white"/>
<path d="M64 0H76V12H64V0Z" fill="white"/>
<path d="M77 0H89V12H77V0Z" fill="white"/>
<path d="M64 26H76V38H64V26Z" fill="white"/>
<path d="M64 52H76V64H64V52Z" fill="white"/>
<path d="M77 52H89V64H77V52Z" fill="white"/>
<path d="M102 26H114V38H102V26Z" fill="white"/>
<path d="M102 26H114V38H102V26Z" fill="white"/>
<path d="M102 13H114V25H102V13Z" fill="white"/>
<path d="M102 13H114V25H102V13Z" fill="white"/>
<path d="M115 0H127V12H115V0Z" fill="white"/>
<path d="M115 0H127V12H115V0Z" fill="white"/>
<path d="M128 13H140V25H128V13Z" fill="white"/>
<path d="M128 13H140V25H128V13Z" fill="white"/>
<path d="M128 26H140V38H128V26Z" fill="white"/>
<path d="M128 26H140V38H128V26Z" fill="white"/>
<path d="M128 39H140V51H128V39Z" fill="white"/>
<path d="M128 39H140V51H128V39Z" fill="white"/>
<path d="M128 52H140V64H128V52Z" fill="white"/>
<path d="M128 52H140V64H128V52Z" fill="white"/>
<path d="M102 39H114V51H102V39Z" fill="white"/>
<path d="M102 39H114V51H102V39Z" fill="white"/>
<path d="M102 52H114V64H102V52Z" fill="white"/>
<path d="M102 52H114V64H102V52Z" fill="white"/>
<path d="M115 26H127V38H115V26Z" fill="white"/>
<path d="M115 26H127V38H115V26Z" fill="white"/>
<path d="M128 0H140V12H128V0Z" fill="white"/>
<path d="M128 0H140V12H128V0Z" fill="white"/>
<path d="M102 26H114V38H102V26Z" fill="white"/>
<path d="M102 26H114V38H102V26Z" fill="white"/>
<path d="M102 13H114V25H102V13Z" fill="white"/>
<path d="M102 13H114V25H102V13Z" fill="white"/>
<path d="M115 0H127V12H115V0Z" fill="white"/>
<path d="M115 0H127V12H115V0Z" fill="white"/>
<path d="M128 13H140V25H128V13Z" fill="white"/>
<path d="M128 13H140V25H128V13Z" fill="white"/>
<path d="M128 26H140V38H128V26Z" fill="white"/>
<path d="M128 26H140V38H128V26Z" fill="white"/>
<path d="M128 39H140V51H128V39Z" fill="white"/>
<path d="M128 39H140V51H128V39Z" fill="white"/>
<path d="M128 52H140V64H128V52Z" fill="white"/>
<path d="M128 52H140V64H128V52Z" fill="white"/>
<path d="M102 39H114V51H102V39Z" fill="white"/>
<path d="M102 39H114V51H102V39Z" fill="white"/>
<path d="M102 52H114V64H102V52Z" fill="white"/>
<path d="M102 52H114V64H102V52Z" fill="white"/>
<path d="M115 26H127V38H115V26Z" fill="white"/>
<path d="M115 26H127V38H115V26Z" fill="white"/>
<path d="M128 0H140V12H128V0Z" fill="white"/>
<path d="M128 0H140V12H128V0Z" fill="white"/>
<path d="M153 64H165V52H153V64Z" fill="white"/>
<path d="M153 51H165V39H153V51Z" fill="white"/>
<path d="M153 38H165V26H153V38Z" fill="white"/>
<path d="M153 25H165V13H153V25Z" fill="white"/>
<path d="M166 12H178V0H166V12Z" fill="white"/>
<path d="M179 12H191V0H179V12Z" fill="white"/>
</svg>
